<?xml version="1.0" encoding="utf-8"?>
<!-- Generator: Adobe Illustrator 15.0.0, SVG Export Plug-In . SVG Version: 6.00 Build 0)  -->
<!DOCTYPE svg PUBLIC "-//W3C//DTD SVG 1.1//EN" "http://www.w3.org/Graphics/SVG/1.1/DTD/svg11.dtd">
<svg version="1.1" id="Layer_1" xmlns="http://www.w3.org/2000/svg" xmlns:xlink="http://www.w3.org/1999/xlink" x="0px" y="0px"
	 width="25px" height="25px" viewBox="0 0 25 25" enable-background="new 0 0 25 25" xml:space="preserve">
<path fill="#707070" d="M1.778,14.295c-0.251,0-0.479-0.042-0.684-0.125c-0.238-0.097-0.432-0.222-0.573-0.375
	c-0.192-0.168-0.33-0.367-0.414-0.594C0.036,13.07,0,12.837,0,12.501c0-0.323,0.036-0.55,0.107-0.684
	c0.097-0.203,0.228-0.395,0.396-0.574c0.19-0.193,0.388-0.33,0.592-0.414c0.204-0.083,0.432-0.126,0.684-0.126h21.444
	c0.25,0,0.479,0.042,0.684,0.126c0.238,0.096,0.43,0.221,0.574,0.378c0.18,0.167,0.318,0.371,0.412,0.61
	c0.07,0.131,0.107,0.36,0.107,0.684c0,0.323-0.037,0.553-0.107,0.684c-0.096,0.202-0.229,0.396-0.396,0.573
	c-0.191,0.192-0.389,0.33-0.59,0.414c-0.205,0.083-0.434,0.125-0.684,0.125L1.778,14.295L1.778,14.295z M1.778,25
	c-0.299,0-0.527-0.041-0.684-0.125c-0.228-0.096-0.418-0.223-0.573-0.377c-0.192-0.193-0.33-0.391-0.414-0.592
	C0.036,23.773,0,23.547,0,23.223c0-0.311,0.036-0.533,0.107-0.666c0.084-0.201,0.216-0.395,0.396-0.574
	c0.154-0.154,0.352-0.285,0.592-0.395c0.204-0.084,0.432-0.125,0.684-0.125h21.444c0.25,0,0.479,0.041,0.684,0.125
	c0.238,0.106,0.43,0.234,0.574,0.377c0.168,0.168,0.299,0.365,0.395,0.592c0.084,0.156,0.127,0.377,0.127,0.666
	c0,0.299-0.043,0.527-0.127,0.682c-0.096,0.227-0.221,0.42-0.375,0.574c-0.193,0.191-0.391,0.33-0.594,0.412
	C23.773,24.963,23.545,25,23.225,25H1.778L1.778,25z M1.778,3.575c-0.228,0-0.455-0.055-0.684-0.161
	C0.867,3.317,0.677,3.192,0.521,3.036c-0.18-0.18-0.317-0.365-0.414-0.558C0.036,2.348,0,2.114,0,1.779
	c0-0.324,0.036-0.551,0.107-0.684c0.084-0.204,0.216-0.395,0.396-0.573c0.168-0.169,0.364-0.301,0.592-0.396
	C1.25,0.042,1.479,0,1.778,0h21.444c0.299,0,0.527,0.042,0.684,0.126c0.238,0.096,0.43,0.228,0.574,0.396
	c0.168,0.143,0.299,0.335,0.395,0.573c0.084,0.155,0.127,0.383,0.127,0.684c0,0.31-0.043,0.544-0.127,0.699
	c-0.084,0.204-0.209,0.39-0.375,0.558c-0.217,0.156-0.412,0.281-0.594,0.378c-0.227,0.106-0.453,0.161-0.682,0.161H1.778z"/>
</svg>
